<?xml version="1.0" standalone="no"?>
<!DOCTYPE svg PUBLIC "-//W3C//DTD SVG 20010904//EN"
 "http://www.w3.org/TR/2001/REC-SVG-20010904/DTD/svg10.dtd">
<svg version="1.0" xmlns="http://www.w3.org/2000/svg"
 width="208.000000pt" height="179.000000pt" viewBox="0 0 208.000000 179.000000"
 preserveAspectRatio="xMidYMid meet">

<g transform="translate(0.000000,179.000000) scale(0.100000,-0.100000)"
fill="#000000" stroke="none">
<path d="M667 1577 c10 -49 -7 -95 -63 -169 -60 -79 -82 -135 -66 -163 8 -16
12 -12 29 26 11 24 41 69 66 99 71 86 81 125 47 195 -15 31 -18 33 -13 12z"/>
<path d="M745 1454 c8 -30 -10 -70 -55 -129 -37 -48 -44 -67 -41 -110 1 -14 7
-8 20 21 10 22 33 57 50 77 43 48 54 90 36 131 -8 17 -12 21 -10 10z"/>
<path d="M515 1128 c-2 -13 -15 -144 -28 -293 l-22 -270 -59 0 -58 0 -2 -95
-1 -94 -47 3 -48 3 0 -87 0 -86 118 3 117 3 3 100 3 100 106 -1 106 -1 1 -99
1 -99 568 -3 567 -2 0 85 0 85 -50 0 -50 0 0 270 c0 149 -4 270 -8 270 -4 0
-70 -27 -146 -60 -76 -33 -140 -60 -142 -60 -2 0 -4 27 -4 60 0 33 -2 60 -5
60 -3 0 -65 -25 -138 -56 -73 -31 -138 -58 -144 -61 -10 -4 -13 11 -13 56 0
34 -3 61 -7 61 -5 0 -69 -27 -143 -59 l-135 -59 -5 -118 -5 -119 -60 0 -60 0
-12 150 c-7 83 -18 213 -25 290 l-13 140 -77 3 c-74 3 -78 2 -83 -20z m605
-503 l0 -55 -105 0 c-58 0 -108 -1 -112 -2 -9 -3 -17 78 -9 98 4 11 31 14 116
14 l110 0 0 -55z m288 -2 l3 -53 -115 0 -116 0 0 55 0 56 113 -3 112 -3 3 -52z
m282 2 l0 -55 -115 0 -115 0 0 48 c0 27 3 52 7 55 3 4 55 7 115 7 l108 0 0
-55z"/>
</g>
</svg>
